<svg width="291" height="56" viewBox="0 0 291 56" fill="none" xmlns="http://www.w3.org/2000/svg">
<path d="M9.32506 17.5H19.2329V51.3333C19.2329 53.9107 17.1455 56 14.5704 56H13.9876C11.4126 56 9.32506 53.9107 9.32506 51.3333V17.5Z" fill="#201E1E"/>
<path d="M48.8772 20.1251C48.8772 14.7876 46.8173 9.66866 43.1507 5.89449C39.4841 2.12031 34.5112 6.99928e-07 29.3259 0C24.1406 -6.99926e-07 19.1677 2.12031 15.5011 5.89449C11.8345 9.66866 9.77462 14.7876 9.77462 20.1251H15.8845C17.9091 20.1251 19.488 18.3786 20.2296 16.4393C20.7165 15.1661 21.4553 13.9961 22.4134 13.0097C24.2467 11.1227 26.7332 10.0625 29.3259 10.0625C31.9185 10.0625 34.4051 11.1227 36.2384 13.0097C38.0716 14.8968 39.1015 17.4563 39.1015 20.1251H48.8772Z" fill="#201E1E"/>
<path d="M37.6142 27.8265C38.5968 25.3848 39.1015 22.7678 39.1015 20.1251H48.8772C48.8772 31.2398 40.1237 40.25 29.3259 40.25C27.6349 40.25 25.9939 40.029 24.4291 39.6136C25.3144 39.3788 26.1847 39.0798 27.0332 38.7181C29.4053 37.7067 31.5606 36.2244 33.3761 34.3556C35.1916 32.4868 36.6318 30.2682 37.6142 27.8265Z" fill="#E7E4E5"/>
<path d="M0 20.1249C-3.67304e-07 22.7679 0.505708 25.3848 1.48825 27.8265C2.4708 30.2682 3.91093 32.4868 5.72644 34.3556C7.54193 36.2243 9.69725 37.7067 12.0693 38.7181C14.4414 39.7295 16.9837 40.25 19.5513 40.25C22.1187 40.25 24.6611 39.7295 27.0332 38.7181C29.4053 37.7067 31.5606 36.2244 33.3761 34.3556C35.1916 32.4868 36.6318 30.2682 37.6142 27.8265C38.5968 25.3848 39.1015 22.7678 39.1015 20.1251L32.9927 20.1249C30.9681 20.1249 29.3891 21.8714 28.6476 23.8105C28.6265 23.8658 28.6048 23.9208 28.5828 23.9758C28.0915 25.1966 27.3715 26.3059 26.4636 27.2403C25.5559 28.1746 24.4782 28.9159 23.2922 29.4216C22.1063 29.9273 20.8351 30.1875 19.5513 30.1875C18.2675 30.1875 16.9963 29.9273 15.8103 29.4216C14.6242 28.9159 13.5467 28.1746 12.6388 27.2403C11.7311 26.3059 11.011 25.1966 10.5198 23.9758C10.0285 22.7549 9.77462 21.4465 9.77462 20.1251L0 20.1249Z" fill="#FFB940"/>
<path d="M0.00205134 20.1251C0.00205134 9.01025 8.75542 0 19.5532 0C21.2439 0 22.8843 0.220865 24.449 0.63611C21.0916 1.5264 17.9944 3.32809 15.5011 5.89449C11.8345 9.66866 9.77462 14.7876 9.77462 20.1251H0.00205134Z" fill="#E7E4E5"/>
<path d="M80.7784 39.2793C79.1247 39.2793 77.6778 39.1269 76.4376 38.822C75.1973 38.4953 74.1529 37.9073 73.3043 37.058C72.4775 36.1869 71.8574 34.9456 71.444 33.334C71.0306 31.7224 70.8239 29.6209 70.8239 27.0293C70.8239 24.4378 71.0306 22.3362 71.444 20.7247C71.8792 19.0913 72.5101 17.8391 73.337 16.968C74.1638 16.0969 75.1973 15.498 76.4376 15.1713C77.6778 14.8447 79.1247 14.6813 80.7784 14.6813C82.432 14.6813 83.879 14.8447 85.1192 15.1713C86.3594 15.498 87.3929 16.0969 88.2198 16.968C89.0466 17.8391 89.6667 19.0913 90.0801 20.7247C90.4935 22.3362 90.7002 24.4378 90.7002 27.0293C90.7002 29.6209 90.4935 31.7224 90.0801 33.334C89.6667 34.9456 89.0466 36.1869 88.2198 37.058C87.3929 37.9073 86.3594 38.4953 85.1192 38.822C83.879 39.1269 82.432 39.2793 80.7784 39.2793ZM80.7784 34.9347C81.7575 34.9347 82.5734 34.8258 83.2262 34.608C83.879 34.3902 84.3903 34.0091 84.7602 33.4647C85.1518 32.8984 85.4347 32.1036 85.6088 31.08C85.7828 30.0347 85.8699 28.6844 85.8699 27.0293C85.8699 25.2871 85.7828 23.8933 85.6088 22.848C85.4347 21.8027 85.1518 21.0078 84.7602 20.4633C84.3903 19.8971 83.879 19.516 83.2262 19.32C82.5734 19.124 81.7575 19.026 80.7784 19.026C79.8428 19.026 79.0486 19.124 78.3958 19.32C77.7431 19.516 77.21 19.8971 76.7966 20.4633C76.4049 21.0078 76.1112 21.8027 75.9153 22.848C75.7413 23.8933 75.6542 25.2871 75.6542 27.0293C75.6542 28.6844 75.7304 30.0347 75.8827 31.08C76.0568 32.1036 76.3396 32.8984 76.7313 33.4647C77.123 34.0091 77.6451 34.3902 78.2979 34.608C78.9724 34.8258 79.7992 34.9347 80.7784 34.9347Z" fill="white"/>
<path d="M106.981 39.0833L91.9022 14.91H97.2548L112.333 39.0833H106.981ZM92.0001 39.0833L100.094 25.886L102.575 29.9693L97.3527 39.0833H92.0001ZM104.207 28.4013L101.759 24.318L107.111 14.91H112.431L104.207 28.4013Z" fill="white"/>
<path d="M128.622 39.0833L113.544 14.91H118.896L133.975 39.0833H128.622ZM113.642 39.0833L121.736 25.886L124.216 29.9693L118.994 39.0833H113.642ZM125.848 28.4013L123.4 24.318L128.753 14.91H134.073L125.848 28.4013Z" fill="white"/>
<path d="M145.576 39.2793C143.922 39.2793 142.475 39.1269 141.235 38.822C139.995 38.4953 138.95 37.9073 138.102 37.058C137.275 36.1869 136.655 34.9456 136.241 33.334C135.828 31.7224 135.621 29.6209 135.621 27.0293C135.621 24.4378 135.828 22.3362 136.241 20.7247C136.677 19.0913 137.308 17.8391 138.134 16.968C138.961 16.0969 139.995 15.498 141.235 15.1713C142.475 14.8447 143.922 14.6813 145.576 14.6813C147.229 14.6813 148.676 14.8447 149.917 15.1713C151.157 15.498 152.19 16.0969 153.017 16.968C153.844 17.8391 154.464 19.0913 154.877 20.7247C155.291 22.3362 155.498 24.4378 155.498 27.0293C155.498 29.6209 155.291 31.7224 154.877 33.334C154.464 34.9456 153.844 36.1869 153.017 37.058C152.19 37.9073 151.157 38.4953 149.917 38.822C148.676 39.1269 147.229 39.2793 145.576 39.2793ZM145.576 34.9347C146.555 34.9347 147.371 34.8258 148.024 34.608C148.676 34.3902 149.188 34.0091 149.558 33.4647C149.949 32.8984 150.232 32.1036 150.406 31.08C150.58 30.0347 150.667 28.6844 150.667 27.0293C150.667 25.2871 150.58 23.8933 150.406 22.848C150.232 21.8027 149.949 21.0078 149.558 20.4633C149.188 19.8971 148.676 19.516 148.024 19.32C147.371 19.124 146.555 19.026 145.576 19.026C144.64 19.026 143.846 19.124 143.193 19.32C142.54 19.516 142.007 19.8971 141.594 20.4633C141.202 21.0078 140.909 21.8027 140.713 22.848C140.539 23.8933 140.452 25.2871 140.452 27.0293C140.452 28.6844 140.528 30.0347 140.68 31.08C140.854 32.1036 141.137 32.8984 141.529 33.4647C141.92 34.0091 142.443 34.3902 143.095 34.608C143.77 34.8258 144.597 34.9347 145.576 34.9347Z" fill="white"/>
<path d="M167.477 39.0833V14.91H177.66C178.443 14.91 179.237 15.008 180.042 15.204C180.869 15.3782 181.62 15.7484 182.294 16.3147C182.99 16.8591 183.545 17.6867 183.959 18.7973C184.394 19.908 184.611 21.378 184.611 23.2073C184.611 25.0367 184.394 26.5176 183.959 27.65C183.545 28.7824 183.001 29.6427 182.327 30.2307C181.652 30.8187 180.923 31.2107 180.14 31.4067C179.357 31.6027 178.595 31.7007 177.855 31.7007C177.464 31.7007 177.007 31.6898 176.485 31.668C175.962 31.6244 175.429 31.57 174.885 31.5047C174.363 31.4393 173.874 31.3849 173.417 31.3413C172.96 31.276 172.59 31.2216 172.307 31.178V39.0833H167.477ZM172.307 27.356H177.105C177.671 27.356 178.149 27.2253 178.541 26.964C178.954 26.6809 179.259 26.2453 179.455 25.6573C179.651 25.0476 179.748 24.2418 179.748 23.24C179.748 22.26 179.64 21.4869 179.422 20.9207C179.226 20.3327 178.933 19.908 178.541 19.6467C178.171 19.3853 177.725 19.2547 177.203 19.2547H172.307V27.356Z" fill="white"/>
<path d="M194.895 39.2467C192.959 39.2467 191.414 38.9962 190.261 38.4953C189.108 37.9727 188.27 37.058 187.748 35.7513C187.247 34.4447 186.997 32.6371 186.997 30.3287C186.997 27.9549 187.236 26.1147 187.715 24.808C188.194 23.5013 188.999 22.5867 190.13 22.064C191.262 21.5413 192.796 21.28 194.732 21.28C196.473 21.28 197.865 21.4542 198.91 21.8027C199.954 22.1511 200.705 22.7609 201.162 23.632C201.641 24.5031 201.88 25.7336 201.88 27.3233C201.88 28.4993 201.641 29.4358 201.162 30.1327C200.705 30.8078 200.052 31.2978 199.204 31.6027C198.355 31.8858 197.354 32.0273 196.201 32.0273H191.795C191.838 32.9202 191.969 33.6389 192.186 34.1833C192.426 34.706 192.85 35.0871 193.459 35.3267C194.09 35.5444 194.993 35.6533 196.168 35.6533H201.292V38.4953C200.444 38.6696 199.508 38.8438 198.486 39.018C197.485 39.1704 196.288 39.2467 194.895 39.2467ZM191.73 29.1527H195.711C196.364 29.1527 196.843 29.022 197.147 28.7607C197.452 28.4993 197.604 28.0311 197.604 27.356C197.604 26.7244 197.506 26.2236 197.311 25.8533C197.115 25.4613 196.81 25.1891 196.397 25.0367C195.983 24.8624 195.428 24.7753 194.732 24.7753C193.992 24.7753 193.405 24.906 192.97 25.1673C192.535 25.4069 192.219 25.8424 192.023 26.474C191.827 27.1056 191.73 27.9984 191.73 29.1527Z" fill="white"/>
<path d="M205.049 39.0833V21.5413H208.77L209.88 24.22C210.511 23.4142 211.218 22.7282 212.001 22.162C212.806 21.5958 213.753 21.3127 214.841 21.3127C215.08 21.3127 215.319 21.3236 215.559 21.3453C215.82 21.3671 216.059 21.4107 216.277 21.476V26.4413C215.95 26.3978 215.602 26.3651 215.232 26.3433C214.884 26.2998 214.547 26.278 214.221 26.278C213.59 26.278 213.013 26.3542 212.491 26.5067C211.99 26.6373 211.522 26.8442 211.087 27.1273C210.674 27.3887 210.271 27.7371 209.88 28.1727V39.0833H205.049Z" fill="white"/>
<path d="M220.058 39.0833V25.4287H217.577V22.3253L220.058 21.5413V20.3653C220.058 18.8844 220.254 17.6758 220.645 16.7393C221.059 15.7811 221.69 15.0842 222.538 14.6487C223.387 14.1913 224.507 13.9627 225.9 13.9627C226.662 13.9627 227.347 14.0171 227.956 14.126C228.587 14.2349 229.109 14.3438 229.523 14.4527V17.9153H226.846C226.346 17.9153 225.954 17.9916 225.672 18.144C225.389 18.2964 225.193 18.536 225.084 18.8627C224.975 19.1676 224.921 19.5813 224.921 20.104V21.5413H229.36V25.4287H224.921V39.0833H220.058Z" fill="white"/>
<path d="M239.17 39.2467C237.734 39.2467 236.504 39.1051 235.482 38.822C234.459 38.5171 233.621 38.0162 232.969 37.3193C232.338 36.6224 231.87 35.6969 231.565 34.5427C231.282 33.3884 231.141 31.962 231.141 30.2633C231.141 28.4776 231.282 27.0076 231.565 25.8533C231.87 24.6773 232.338 23.7627 232.969 23.1093C233.621 22.4342 234.459 21.966 235.482 21.7047C236.526 21.4216 237.755 21.28 239.17 21.28C240.628 21.28 241.868 21.4216 242.89 21.7047C243.913 21.9878 244.74 22.4669 245.371 23.142C246.024 23.7953 246.491 24.71 246.774 25.886C247.079 27.0402 247.231 28.4993 247.231 30.2633C247.231 32.0056 247.09 33.4647 246.807 34.6407C246.524 35.7949 246.067 36.7096 245.436 37.3847C244.805 38.0598 243.968 38.5389 242.923 38.822C241.9 39.1051 240.649 39.2467 239.17 39.2467ZM239.17 35.392C239.757 35.392 240.247 35.3376 240.638 35.2287C241.052 35.1198 241.378 34.902 241.618 34.5753C241.879 34.2269 242.075 33.7042 242.205 33.0073C242.336 32.3104 242.401 31.3958 242.401 30.2633C242.401 29.1091 242.336 28.1944 242.205 27.5193C242.075 26.8224 241.879 26.3107 241.618 25.984C241.378 25.6356 241.052 25.4069 240.638 25.298C240.247 25.1891 239.757 25.1347 239.17 25.1347C238.604 25.1347 238.114 25.1891 237.701 25.298C237.309 25.4069 236.983 25.6356 236.722 25.984C236.461 26.3107 236.265 26.8224 236.134 27.5193C236.026 28.1944 235.971 29.1091 235.971 30.2633C235.971 31.3958 236.026 32.3104 236.134 33.0073C236.265 33.7042 236.461 34.2269 236.722 34.5753C236.983 34.902 237.309 35.1198 237.701 35.2287C238.114 35.3376 238.604 35.392 239.17 35.392Z" fill="white"/>
<path d="M250.436 39.0833V21.5413H254.157L255.267 24.22C255.898 23.4142 256.605 22.7282 257.388 22.162C258.193 21.5958 259.14 21.3127 260.227 21.3127C260.467 21.3127 260.706 21.3236 260.946 21.3453C261.207 21.3671 261.446 21.4107 261.664 21.476V26.4413C261.337 26.3978 260.989 26.3651 260.619 26.3433C260.271 26.2998 259.934 26.278 259.607 26.278C258.976 26.278 258.4 26.3542 257.878 26.5067C257.377 26.6373 256.909 26.8442 256.474 27.1273C256.061 27.3887 255.658 27.7371 255.267 28.1727V39.0833H250.436Z" fill="white"/>
<path d="M264.237 39.0833V21.5413H268.219L269.067 23.338C269.829 22.7718 270.656 22.2818 271.548 21.868C272.462 21.4542 273.582 21.2473 274.91 21.2473C276.019 21.2473 276.933 21.476 277.651 21.9333C278.391 22.3907 278.946 22.9896 279.316 23.73C279.816 23.338 280.393 22.9569 281.046 22.5867C281.72 22.2164 282.438 21.9007 283.2 21.6393C283.961 21.378 284.712 21.2473 285.452 21.2473C286.866 21.2473 287.976 21.5196 288.781 22.064C289.607 22.5867 290.184 23.338 290.51 24.318C290.837 25.2762 291 26.4087 291 27.7153V39.0833H286.17V28.14C286.17 27.5738 286.061 27.1056 285.843 26.7353C285.647 26.3651 285.365 26.082 284.995 25.886C284.625 25.69 284.179 25.592 283.657 25.592C283.004 25.592 282.34 25.7336 281.666 26.0167C281.013 26.278 280.425 26.5938 279.903 26.964C279.947 27.1818 279.979 27.3996 280.001 27.6173C280.023 27.8133 280.034 28.0202 280.034 28.238V39.0833H275.203V28.14C275.203 27.5738 275.095 27.1056 274.877 26.7353C274.681 26.3651 274.398 26.082 274.028 25.886C273.658 25.69 273.212 25.592 272.69 25.592C272.233 25.592 271.787 25.6464 271.352 25.7553C270.939 25.8642 270.536 26.0167 270.145 26.2127C269.775 26.4087 269.416 26.6373 269.067 26.8987V39.0833H264.237Z" fill="white"/>
</svg>
